<svg width="24" height="24" viewBox="0 0 24 24" fill="none" xmlns="http://www.w3.org/2000/svg">
<path fill-rule="evenodd" clip-rule="evenodd" d="M21.5 12C21.5 17.2467 17.2467 21.5 12 21.5C9.89815 21.5 7.95573 20.8174 6.38232 19.6618L19.225 5.83128C20.6435 7.49106 21.5 9.6455 21.5 12ZM5.24615 18.681L18.1632 4.77031C16.5042 3.35464 14.3519 2.5 12 2.5C6.75329 2.5 2.5 6.75329 2.5 12C2.5 14.6048 3.54835 16.9648 5.24615 18.681ZM23 12C23 18.0751 18.0751 23 12 23C5.92487 23 1 18.0751 1 12C1 5.92487 5.92487 1 12 1C18.0751 1 23 5.92487 23 12Z" fill="#4A4A4A"/>
<path d="M8.51418 5.49486C10.2297 4.62904 12.5799 5.81024 13.749 8.12663C14.0773 8.75913 14.2911 9.44478 14.3804 10.1518C14.4215 10.5093 14.5887 10.8405 14.8518 11.0859C15.3676 11.5777 15.7922 12.1569 16.106 12.7968C17.2751 15.1132 16.8294 17.7055 15.1139 18.5713C13.3984 19.4371 11.0482 18.2559 9.87913 15.9395C9.55075 15.307 9.33696 14.6214 9.24766 13.9143C9.20655 13.5568 9.03942 13.2257 8.77625 12.9803C8.26048 12.4885 7.83587 11.9092 7.52209 11.2694C6.35299 8.95297 6.79868 6.36068 8.51418 5.49486Z" fill="#E4E4E4"/>
<path fill-rule="evenodd" clip-rule="evenodd" d="M6.19691 7.71072C6.40626 6.49248 7.05567 5.3903 8.17592 4.8249C9.29618 4.25951 10.5686 4.39173 11.673 4.94692C12.777 5.50189 13.7662 6.49851 14.4162 7.78445C14.7843 8.49448 15.024 9.26398 15.1242 10.0574L15.1252 10.0657L15.1252 10.0657C15.1459 10.2461 15.2302 10.4131 15.363 10.5369L15.3691 10.5426L15.3691 10.5427C15.9479 11.0946 16.4246 11.7445 16.7772 12.4623C17.4256 13.749 17.6398 15.1369 17.4305 16.3546C17.2212 17.5729 16.5718 18.675 15.4515 19.2404C14.3313 19.8058 13.0588 19.6736 11.9544 19.1184C10.8505 18.5635 9.86117 17.5668 9.21118 16.2809C8.84313 15.5708 8.60346 14.8014 8.50324 14.0079L8.50219 13.9996L8.50224 13.9996C8.4815 13.8193 8.39719 13.6522 8.26442 13.5284L8.25831 13.5227L8.25834 13.5227C7.67954 12.9708 7.20285 12.3209 6.85027 11.6031C6.20181 10.3163 5.98765 8.92849 6.19691 7.71072ZM7.67525 7.96477C7.52527 8.83748 7.67218 9.90244 8.19131 10.931L8.19519 10.9387L8.19514 10.9387C8.46942 11.498 8.84036 12.0044 9.29087 12.4346C9.6813 12.8002 9.92965 13.2923 9.99187 13.8235C10.0703 14.4415 10.2574 15.0407 10.5444 15.5935L10.5484 15.6012L10.5484 15.6012C11.0675 16.6298 11.837 17.3805 12.6281 17.7782C13.42 18.1763 14.1804 18.2017 14.7757 17.9013C15.3709 17.6009 15.8021 16.974 15.9522 16.1006C16.1022 15.2279 15.9552 14.1629 15.4361 13.1343L15.4322 13.1266L15.4323 13.1266C15.158 12.5673 14.7871 12.0609 14.3366 11.6308C13.9461 11.2651 13.6978 10.7731 13.6356 10.2418C13.5571 9.62386 13.37 9.02466 13.083 8.47182L13.079 8.46418L13.0791 8.46416C12.5599 7.43557 11.7904 6.68483 10.9993 6.28711C10.2075 5.88905 9.44703 5.86359 8.85178 6.16402C8.25653 6.46444 7.82534 7.09132 7.67525 7.96477Z" fill="#4A4A4A"/>
<path d="M11.0465 9.7886C11.282 9.64431 11.3558 9.33647 11.2115 9.10102C11.0672 8.86558 10.7594 8.79169 10.524 8.93599C10.2885 9.08029 10.2146 9.38813 10.3589 9.62357C10.5032 9.85901 10.8111 9.9329 11.0465 9.7886Z" fill="#4A4A4A"/>
<path d="M12.5543 15.1851C12.7898 15.0408 12.8637 14.733 12.7194 14.4975C12.5751 14.2621 12.2672 14.1882 12.0318 14.3325C11.7963 14.4768 11.7224 14.7846 11.8667 15.0201C12.011 15.2555 12.3189 15.3294 12.5543 15.1851Z" fill="#4A4A4A"/>
<path d="M12.5543 12.1851C12.7898 12.0408 12.8637 11.733 12.7194 11.4975C12.5751 11.2621 12.2672 11.1882 12.0318 11.3325C11.7963 11.4768 11.7224 11.7846 11.8667 12.0201C12.011 12.2555 12.3189 12.3294 12.5543 12.1851Z" fill="#4A4A4A"/>
<path d="M13.5963 17.0152C13.8318 16.8709 13.9056 16.563 13.7613 16.3276C13.617 16.0921 13.3092 16.0183 13.0738 16.1626C12.8383 16.3069 12.7644 16.6147 12.9087 16.8501C13.053 17.0856 13.3609 17.1595 13.5963 17.0152Z" fill="#4A4A4A"/>
<path d="M14.5543 15.1851C14.7898 15.0408 14.8637 14.733 14.7194 14.4975C14.5751 14.2621 14.2672 14.1882 14.0318 14.3325C13.7963 14.4768 13.7224 14.7846 13.8667 15.0201C14.011 15.2555 14.3189 15.3294 14.5543 15.1851Z" fill="#4A4A4A"/>
<path d="M11.3112 7.9722C11.5466 7.8279 11.6205 7.52006 11.4762 7.28462C11.3319 7.04918 11.0241 6.97529 10.7886 7.11959C10.5532 7.26388 10.4793 7.57172 10.6236 7.80716C10.7679 8.04261 11.0757 8.11649 11.3112 7.9722Z" fill="#4A4A4A"/>
<path d="M9.55432 8.18509C9.78976 8.04079 9.86365 7.73295 9.71935 7.49751C9.57506 7.26207 9.26722 7.18818 9.03177 7.33248C8.79633 7.47677 8.72244 7.78461 8.86674 8.02006C9.01104 8.2555 9.31888 8.32938 9.55432 8.18509Z" fill="#4A4A4A"/>
<path d="M9.99963 11.5308C10.2351 11.3865 10.309 11.0787 10.1647 10.8432C10.0204 10.6078 9.71253 10.5339 9.47709 10.6782C9.24164 10.8225 9.16776 11.1303 9.31205 11.3658C9.45635 11.6012 9.76419 11.6751 9.99963 11.5308Z" fill="#4A4A4A"/>
</svg>
