<svg xmlns="http://www.w3.org/2000/svg" width="16" height="17" fill="none"><path stroke="#292929" d="M2.75 6.41c0-2.848 2.357-5.16 5.25-5.16s5.25 2.312 5.25 5.16c0 1.097-.25 2.263-.737 3.463-.379.934-.905 1.894-1.563 2.859a20.231 20.231 0 01-1.523 1.956c-.322.364-.609.663-.736.783a.991.991 0 01-1.38.002 14.186 14.186 0 01-.739-.788 20.339 20.339 0 01-1.522-1.959A15.438 15.438 0 013.487 9.87c-.488-1.202-.737-2.365-.737-3.46z"/><mask style="mask-type:alpha" id="a" width="12" height="17" x="2" y="0" maskUnits="userSpaceOnUse"><path fill="#fff" stroke="#fff" d="M2.75 6.41c0-2.848 2.357-5.16 5.25-5.16s5.25 2.312 5.25 5.16c0 1.097-.25 2.263-.737 3.463-.379.934-.905 1.894-1.563 2.859a20.231 20.231 0 01-1.523 1.956c-.322.364-.609.663-.736.783a.991.991 0 01-1.38.002 14.186 14.186 0 01-.739-.788 20.339 20.339 0 01-1.522-1.959A15.438 15.438 0 013.487 9.87c-.488-1.202-.737-2.365-.737-3.46z"/></mask><g mask="url(#a)"><circle cx="8" cy="6.589" r="2.5" stroke="#292929"/></g></svg>